<svg height="64" viewBox="0 0 64 64" width="64" xmlns="http://www.w3.org/2000/svg"><path d="M0 32v32h64V0H0zm51.576-2.55c1.625.407 2.865 1.128 4.002 2.306.59.63 1.463 1.778 1.534 2.052.02.082-2.763 1.95-4.45 2.997-.06.04-.304-.223-.578-.63-.823-1.198-1.687-1.717-3.007-1.808-1.94-.132-3.19.884-3.18 2.58 0 .498.071.793.274 1.199.427.884 1.22 1.412 3.708 2.489 4.582 1.97 6.543 3.271 7.762 5.12 1.36 2.062 1.666 5.354.741 7.802-1.016 2.661-3.535 4.47-7.08 5.069-1.098.193-3.698.163-4.877-.05-2.57-.458-5.008-1.728-6.511-3.394-.59-.65-1.738-2.346-1.666-2.468.03-.041.294-.204.589-.376a585.07 585.07 0 002.377-1.372l1.839-1.066.386.569c.538.822 1.717 1.95 2.428 2.326 2.042 1.077 4.845.924 6.227-.315.59-.538.833-1.097.833-1.92 0-.742-.091-1.067-.477-1.625-.498-.711-1.514-1.31-4.4-2.56-3.3-1.423-4.723-2.306-6.023-3.708-.752-.813-1.463-2.113-1.758-3.2-.244-.904-.305-3.17-.112-4.084.681-3.19 3.089-5.415 6.563-6.075 1.128-.213 3.749-.132 4.856.142zM36.55 32.122l.02 2.62h-8.33v23.671h-5.89v-23.67h-8.33v-2.57c0-1.423.03-2.611.071-2.642.03-.04 5.1-.06 11.246-.05l11.185.03z" fill="#F5333F"/></svg>